<?xml version="1.0" encoding="UTF-8" standalone="no"?>
<!-- Created with Inkscape (http://www.inkscape.org/) -->

<svg
   xmlns:dc="http://purl.org/dc/elements/1.1/"
   xmlns:cc="http://creativecommons.org/ns#"
   xmlns:rdf="http://www.w3.org/1999/02/22-rdf-syntax-ns#"
   xmlns:svg="http://www.w3.org/2000/svg"
   xmlns="http://www.w3.org/2000/svg"
   xmlns:sodipodi="http://sodipodi.sourceforge.net/DTD/sodipodi-0.dtd"
   xmlns:inkscape="http://www.inkscape.org/namespaces/inkscape"
   width="728.97321"
   height="381.86432"
   id="svg2"
   version="1.1"
   inkscape:version="0.47 r22583"
   sodipodi:docname="Nuevo documento 1">
  <defs
     id="defs4">
    <inkscape:perspective
       sodipodi:type="inkscape:persp3d"
       inkscape:vp_x="0 : 526.18109 : 1"
       inkscape:vp_y="0 : 1000 : 0"
       inkscape:vp_z="744.09448 : 526.18109 : 1"
       inkscape:persp3d-origin="372.04724 : 350.78739 : 1"
       id="perspective10" />
    <inkscape:perspective
       id="perspective2845"
       inkscape:persp3d-origin="0.5 : 0.33333333 : 1"
       inkscape:vp_z="1 : 0.5 : 1"
       inkscape:vp_y="0 : 1000 : 0"
       inkscape:vp_x="0 : 0.5 : 1"
       sodipodi:type="inkscape:persp3d" />
    <inkscape:perspective
       id="perspective2875"
       inkscape:persp3d-origin="0.5 : 0.33333333 : 1"
       inkscape:vp_z="1 : 0.5 : 1"
       inkscape:vp_y="0 : 1000 : 0"
       inkscape:vp_x="0 : 0.5 : 1"
       sodipodi:type="inkscape:persp3d" />
    <inkscape:perspective
       id="perspective2973"
       inkscape:persp3d-origin="0.5 : 0.33333333 : 1"
       inkscape:vp_z="1 : 0.5 : 1"
       inkscape:vp_y="0 : 1000 : 0"
       inkscape:vp_x="0 : 0.5 : 1"
       sodipodi:type="inkscape:persp3d" />
    <inkscape:perspective
       id="perspective3035"
       inkscape:persp3d-origin="0.5 : 0.33333333 : 1"
       inkscape:vp_z="1 : 0.5 : 1"
       inkscape:vp_y="0 : 1000 : 0"
       inkscape:vp_x="0 : 0.5 : 1"
       sodipodi:type="inkscape:persp3d" />
  </defs>
  <sodipodi:namedview
     id="base"
     pagecolor="#ffffff"
     bordercolor="#666666"
     borderopacity="1.0"
     inkscape:pageopacity="0.0"
     inkscape:pageshadow="2"
     inkscape:zoom="1"
     inkscape:cx="375.25907"
     inkscape:cy="179.43216"
     inkscape:document-units="px"
     inkscape:current-layer="layer1"
     showgrid="false"
     inkscape:window-width="1024"
     inkscape:window-height="693"
     inkscape:window-x="0"
     inkscape:window-y="24"
     inkscape:window-maximized="1" />
  <metadata
     id="metadata7">
    <rdf:RDF>
      <cc:Work
         rdf:about="">
        <dc:format>image/svg+xml</dc:format>
        <dc:type
           rdf:resource="http://purl.org/dc/dcmitype/StillImage" />
        <dc:title></dc:title>
      </cc:Work>
    </rdf:RDF>
  </metadata>
  <g
     inkscape:label="Capa 1"
     inkscape:groupmode="layer"
     id="layer1"
     transform="translate(-1.7592408,-12.749523)">
    <g
       id="g3073"
       transform="matrix(0.39715276,0,0,0.39715276,891.79089,119.12019)">
      <rect
         y="-267.33313"
         x="-2240.531"
         height="960.50488"
         width="1834.4983"
         id="rect3068"
         style="fill:#ffffff;stroke:#ffffff" />
      <g
         transform="translate(-1138,100)"
         id="g3041">
        <path
           id="path3045"
           d="m -986,521.82911 c -10.865,-1.52277 -21.567,-6.1851 -28.3907,-12.36846 -2.1399,-1.93908 -4.1914,-3.6545 -4.5589,-3.81204 -1.1173,-0.47897 -8.7032,-11.06031 -10.5588,-14.72801 -2.0561,-4.06425 -3.2158,-7.76649 -4.538,-14.48723 -0.6155,-3.12882 -0.9653,-137.90664 -0.9577,-369.0551 0.013,-397.32346 -0.3967,-368.87722 5.4896,-381.01609 6.1023,-12.58442 19.1001,-23.84646 33.0145,-28.60573 l 7,-2.39427 367.5,0 c 312.6105,0 368.2468,0.20988 372.5,1.40521 15.9056,4.47016 31.9629,18.47682 37.6269,32.82175 3.9138,9.91219 3.8004,-1.27852 3.8375,378.70915 0.033,332.51846 -0.1077,365.51919 -1.5782,371.5 -2.2894,9.31213 -6.9427,17.53045 -13.8862,24.5249 -5.9981,6.04214 -10.5,9.92631 -10.5,9.05934 0,-0.25304 -1.6025,0.62744 -3.5612,1.95662 -4.0505,2.74871 -10.98,4.93952 -20.4388,6.46181 -7.6807,1.23613 -719.1847,1.26363 -728,0.0282 z m 201.9478,-213.524 c 17.2392,-7.73646 18.4899,-31.32918 2.3178,-43.71925 -3.1711,-2.42949 -6.2156,-4.59911 -6.7656,-4.82137 -2.7456,-1.10953 -11.5,-7.19047 -11.5,-7.98808 0,-0.50283 -0.5625,-0.92673 -1.25,-0.94201 -1.7621,-0.0392 -6.4365,-5.01752 -7.6106,-8.1055 -0.7786,-2.0479 -0.5556,-3.30156 1.0636,-5.97897 2.4239,-4.00812 3.1852,-4.57986 7.8049,-5.86137 4.4666,-1.23904 11.9552,0.63317 19.4491,4.86245 5.1266,2.89325 5.4576,2.95554 6.0352,1.13562 1.0106,-3.18408 0.2332,-12.15621 -1.1754,-13.56476 -2.838,-2.83803 -12.3114,-5.45969 -19.7286,-5.45969 -12.5464,0 -20.0882,4.21538 -25.0477,14 -1.7961,3.54356 -2.1897,5.66899 -1.852,10 0.7874,10.09961 3.5885,14.58121 13.7025,21.92335 21.7211,15.76826 22.2285,16.28685 22.4648,22.9631 0.157,4.43635 -0.1508,5.16539 -3.3763,7.99744 -6.9049,6.06252 -18.643,3.80829 -27.4271,-5.2672 -2.4462,-2.52733 -4.7151,-4.16243 -5.042,-3.63356 -0.7605,1.23062 -0.4466,16.50205 0.3663,17.81735 1.1993,1.9405 9.214,5.55954 15.1233,6.82896 8.1312,1.74671 15.2226,1.05598 22.4478,-2.18651 z m 73.1789,-0.54293 c 3.7819,-1.89252 4.8733,-3.53073 4.8733,-7.31512 0,-3.09732 -0.8937,-3.71785 -3.3815,-2.34779 -3.2409,1.78489 -4.555,1.75013 -5.5705,-0.14736 -0.5112,-0.95515 -0.9596,-9.72354 -0.9966,-19.48532 -0.082,-21.79091 -1.1351,-25.21291 -8.806,-28.62682 -6.7004,-2.98197 -18.6208,-2.96188 -26.6102,0.0448 -8.3709,3.15032 -9.4756,4.53147 -8.8728,11.09364 0.272,2.96115 0.6673,5.57695 0.8784,5.81289 0.2111,0.23593 1.7451,-0.57746 3.4088,-1.80753 4.4922,-3.32122 10.4809,-5.12144 17.0372,-5.12144 4.7151,0 6.2267,0.42013 7.8742,2.18856 1.1215,1.20371 2.089,2.77871 2.1501,3.5 0.5032,5.93865 0.7874,5.65482 -9.0661,9.05444 -11.4665,3.95616 -19.795,8.7553 -22.1414,12.75848 -1.0751,1.83432 -1.7858,5.17864 -1.8305,8.61366 -0.1251,9.61327 5.2411,13.88486 17.4431,13.88486 4.5339,0 7.8678,-0.622 10.7199,-2 4.9841,-2.40804 4.3108,-2.39681 6.4749,-0.10791 3.1852,3.36872 9.6932,3.37185 16.4157,0.008 z m -35.4717,-9.72874 c -4.9285,-5.44588 1.9017,-13.53259 13.3664,-15.82554 3.8966,-0.77932 4.9421,0.556 4.9633,6.33918 0.016,4.42405 -1.626,10.00712 -2.644,8.98909 -0.3319,-0.33186 -1.5444,0.0557 -2.6946,0.86132 -3.0409,2.12993 -10.9343,1.90874 -12.9911,-0.36405 z m 58.3039,-10.38635 c -0.1226,-24.1596 0.051,-24.74568 8.3322,-28.19437 4.4142,-1.8382 4.7563,-1.84414 9.1684,-0.15916 6.9192,2.64245 7.5226,4.51999 7.6394,23.76896 0.054,8.96481 0.3919,18.76164 0.75,21.77072 l 0.6511,5.47107 5.3938,-0.1023 c 3.522,-0.0668 5.6041,-0.57728 6,-1.47106 0.3334,-0.75282 0.3812,-12.16877 0.1062,-25.36877 -0.4907,-23.55383 -0.5465,-24.06873 -3,-27.69728 -3.5064,-5.18565 -9.2212,-7.80272 -17.0385,-7.80272 -6.6659,0 -12.9225,1.64278 -14.2612,3.74451 -1.1306,1.77502 -3.0313,1.55695 -4.3101,-0.49451 -0.888,-1.42457 -2.2267,-1.68738 -7.1989,-1.41328 l -6.1079,0.33672 0.2083,29.66328 0.2083,29.66328 5,0.52989 c 8.9131,0.9446 8.5809,1.81812 8.4589,-22.24498 z m 119.8366,19.94237 4.2956,-1.99035 2.2689,2.13154 c 1.6561,1.55584 3.5478,2.13153 7.0041,2.13153 8.2129,0 13.765,-4.19334 12.9094,-9.75 -0.5507,-3.5762 -1.3869,-4.02322 -3.2735,-1.75 -0.6847,0.825 -2.0421,1.5 -3.0164,1.5 -1.6205,0 -1.8047,-1.64087 -2.1608,-19.25 -0.4378,-21.64508 -1.2164,-24.65951 -7.6345,-29.55645 -3.0681,-2.3409 -4.6473,-2.74081 -12.0625,-3.05451 -8.2292,-0.34814 -18.6355,1.25864 -19.7415,3.04817 -0.2874,0.46498 -1.0109,0.54354 -1.6079,0.17459 -0.6221,-0.38445 -0.7998,-0.20871 -0.4164,0.4117 0.368,0.59538 -0.2375,1.37023 -1.3455,1.72189 -2.0276,0.64355 -2.1827,1.10821 -2.505,7.50461 -0.3022,5.99648 0.1606,6.1953 6.717,2.88564 10.0523,-5.07437 20.0152,-5.57488 23.354,-1.17325 0.7457,0.98318 1.3702,3.40747 1.3877,5.38729 l 0.032,3.59968 -12.0568,4.36246 c -13.2309,4.78728 -17.8466,8.01595 -20.4647,14.31511 -2.7294,6.56685 -0.1044,14.56651 5.8491,17.82462 5.4663,2.99156 15.4425,2.78098 22.4679,-0.47427 z m -13.2754,-10.05626 c -2.4786,-3.78275 -1.5571,-7.62217 2.4594,-10.24766 5.0432,-3.29661 13.5879,-6.45513 14.6375,-5.41069 0.4857,0.48325 0.7325,4.08182 0.5484,7.99682 -0.2623,5.58094 -0.6942,7.22814 -2,7.62734 -0.9159,0.28004 -2.4468,0.92632 -3.4018,1.43617 -0.9551,0.50985 -3.7572,0.927 -6.227,0.927 -3.5984,0 -4.7936,-0.46266 -6.0165,-2.32898 z m 57.1621,11.98009 c 0.1202,-0.12017 0.2828,-9.87833 0.3613,-21.6848 l 0.1428,-21.46631 3.3397,-3.18445 c 5.9192,-5.64408 15.2019,-6.24132 19.5254,-1.25625 1.0717,1.23569 2.0394,2.29037 2.1503,2.34371 0.1109,0.0533 0.4484,10.22199 0.75,22.59699 l 0.5483,22.5 6.5,0 6.5,0 0,-24 c 0,-22.176 -0.152,-24.26387 -2,-27.472 -4.077,-7.07762 -9.667,-10.028 -19,-10.028 -6.096,0 -10.7689,1.40878 -15.1624,4.57113 -1.9977,1.43796 -2.2089,1.4096 -2.7746,-0.37255 -0.4712,-1.4848 -1.9056,-2.08102 -6.2289,-2.58914 -3.0892,-0.36307 -5.8404,-0.43648 -6.1137,-0.16313 -0.6853,0.68525 -0.2267,59.73449 0.4727,60.86606 0.4533,0.73347 10.1797,0.14819 10.9891,-0.66126 z M -416,264.43399 c 0,-34.81818 -0.2717,-44.46211 -1.2636,-44.84272 -2.2151,-0.85 -11.1475,0.32106 -11.9681,1.56903 -0.4346,0.66104 -0.7623,7.05188 -0.7282,14.20188 0.034,7.15 0.039,13.53954 0.011,14.19897 -0.037,0.8697 -1.0809,0.76745 -3.801,-0.37233 -4.6091,-1.93126 -17.1035,-1.90683 -22.6458,0.0443 -4.9339,1.73693 -12.0968,8.73014 -15.2061,14.84584 -2.0486,4.02933 -2.3981,6.15038 -2.3981,14.55365 0,8.61807 0.3259,10.49089 2.6302,15.11506 3.9458,7.91822 10.0946,13.4892 16.6148,15.05335 5.0969,1.22273 18.2037,1.07953 23.505,-0.25681 1.2375,-0.31195 2.25,-0.16767 2.25,0.32062 0,1.16213 8.9917,1.73454 11.25,0.71617 1.6285,-0.73438 1.75,-3.86875 1.75,-45.14699 z m -29.5,34.53496 c -6.2091,-1.57188 -8.814,-3.54602 -12.3887,-9.38872 -2.028,-3.31462 -2.2698,-4.79743 -1.9571,-12 0.4137,-9.5298 2.5954,-13.50982 9.2821,-16.93343 4.3183,-2.21093 13.0105,-2.7378 14.8483,-0.9 0.6135,0.61346 1.8773,1.11538 2.8084,1.11538 2.6081,0 2.907,1.96716 2.907,19.13281 l 0,15.96924 -3.5532,1.48461 c -4.7446,1.98246 -8.3223,2.43768 -11.9468,1.52011 z m 88.1519,7.3942 7.1519,-3.30921 0.3481,-5.60911 c 0.1915,-3.08502 0.2056,-6.03063 0.031,-6.5458 -0.3625,-1.0723 -5.3064,0.54423 -6.2288,2.03665 -1.1525,1.86479 -12.0046,4.9265 -17.4617,4.9265 -3.0564,0 -7.0262,-0.61381 -8.8217,-1.36403 -5.6581,-2.36409 -11.4964,-11.21075 -9.0277,-13.67944 0.4933,-0.49337 10.2051,-0.94199 21.5816,-0.99693 24.0504,-0.11613 22.6277,0.67359 20.3387,-11.2899 -1.1145,-5.82531 -2.2991,-8.75267 -4.9427,-12.2149 -6.8463,-8.96627 -11.4832,-10.87434 -24.991,-10.28355 -8.2868,0.36244 -9.5761,0.69554 -13.7157,3.54365 -9.5237,6.55245 -12.9144,13.58438 -12.9144,26.78279 0,10.68347 2.3915,17.55097 8.1512,23.40715 9.1337,9.28659 26.1823,11.22131 40.5007,4.59613 z m -34.1368,-35.47654 c -0.3316,-0.53657 0.4293,-2.77238 1.691,-4.96849 3.2162,-5.59829 10.2527,-8.58188 16.1775,-6.85952 5.5545,1.61469 10.6164,7.27373 10.6164,11.86868 0,1.26302 -27.7036,1.22347 -28.4849,-0.0407 z m -213.7665,37.91335 c 3.2049,-1.11723 4.1508,-3.95065 3.4274,-10.26637 -0.2539,-2.21634 -0.6868,-2.67161 -2,-2.10334 -2.67,1.15539 -13.5461,1.6058 -14.9983,0.62112 -0.7273,-0.49314 -1.7404,-2.64994 -2.2514,-4.7929 -0.9256,-3.88185 -1.0694,-28.76886 -0.18,-31.14629 0.3289,-0.87906 3.2775,-1.25 9.9362,-1.25 l 9.4686,0 -0.2888,-4.75 -0.2888,-4.75 -9.5367,-0.5 -9.5368,-0.5 -0.1069,-4 c -0.2183,-8.16711 -0.4166,-9.5 -1.4138,-9.5 -0.5614,0 -3.5989,2.76306 -6.75,6.14013 -3.1511,3.37707 -7.6418,8.12853 -9.9793,10.55881 -6.0109,6.2495 -5.635,7.93205 1.6358,7.3224 1.3121,-0.11003 2.7417,0.37595 3.1768,1.07995 0.4351,0.70401 0.8362,9.31558 0.8913,19.13685 0.1165,20.75008 0.9621,24.15997 6.8349,27.56451 2.8971,1.67945 5.3786,2.15645 11.312,2.17438 4.1804,0.0126 8.9719,-0.45503 10.6478,-1.03925 z m 279.8096,-17.93778 c 0.3311,-20.55321 1.0897,-23.84304 6.5596,-28.44565 3.7681,-3.1707 9.7197,-3.3285 14.0366,-0.37216 2.8458,1.94892 4.8456,2.3467 4.8456,0.96383 0,-0.46968 1.125,-2.06787 2.5,-3.55152 1.375,-1.48365 2.5,-3.50461 2.5,-4.49103 0,-3.5716 -6.6239,-7.10709 -13.297,-7.09731 -5.1458,0.008 -8.599,1.72363 -12.9011,6.41123 -1.8084,1.97043 -3.6282,3.58261 -4.0439,3.58261 -0.4157,0 -0.6438,-1.85007 -0.5069,-4.11126 l 0.2489,-4.11127 -4,-0.32979 c -2.2,-0.18139 -5.125,-0.12016 -6.5,0.13607 l -2.5,0.46586 0.1978,29.2252 c 0.1088,16.07385 0.2213,29.58416 0.25,30.02291 0.029,0.43874 2.8107,0.66374 6.1823,0.5 l 6.1301,-0.29772 0.298,-18.5 z m -600.5008,-180.5 c 0,-23.650001 -0.01,-44.273331 -0.026,-45.829621 l -0.031,-2.82962 -6.75,0.32962 -6.75,0.32962 -0.2777,43.500001 c -0.1527,23.925 -0.027,44.53275 0.2803,45.795 0.5206,2.14096 0.9941,2.2752 7.0542,2 l 6.4961,-0.295 0,-43 z m 29.9973,42.09571 c 0.03,-0.60264 0.01,-10.34387 -0.05,-21.64718 -0.1,-19.56407 0,-20.68209 2.0336,-23.26998 4.8168,-6.12355 15.3872,-7.795441 20.656,-3.2671 l 2.8058,2.41145 0.5,23.33855 0.5,23.33855 5.3312,0.30507 c 3.071,0.17575 5.9326,-0.19412 6.75,-0.87244 1.1374,-0.94397 1.4188,-5.0929 1.4188,-20.91858 0,-10.85759 -0.4589,-22.16068 -1.0197,-25.11797 -1.216,-6.41175 -5.0322,-11.613991 -10.5146,-14.333581 -7.2682,-3.60538 -19.4858,-2.04063 -25.7586,3.29899 -1.6357,1.3923 -1.8427,1.33589 -2.3602,-0.64301 -0.5999,-2.29374 -4.9415,-3.69504 -9.4659,-3.0552 l -2.381,0.33672 -0.2655,29.488461 c -0.146,16.21865 -0.043,30.06791 0.2287,30.77613 0.6203,1.61653 11.5103,1.45787 11.5915,-0.16888 z m 87.6702,0.0581 c 3.9326,-0.82415 6.3453,-0.94327 6.5519,-0.3235 0.5185,1.55563 11.9304,1.94614 12.8857,0.44094 0.9256,-1.45832 1.1214,-85.110021 0.2072,-88.521241 -0.5369,-2.00352 -1.2347,-2.25001 -6.3697,-2.25001 -7.0145,0 -6.739,-0.68144 -6.942,17.17198 -0.083,7.28974 -0.3404,13.44379 -0.5723,13.67565 -0.2319,0.23187 -1.8771,-0.18132 -3.656,-0.91818 -5.255,-2.17666 -16.9356,-1.48539 -23.176,1.37158 -6.8964,3.15727 -10.6843,6.956841 -14.0699,14.113371 -2.3822,5.03553 -2.7364,6.98602 -2.676,14.7328 0.059,7.51519 0.4933,9.82451 2.7457,14.5856 4.307,9.10428 10.1597,13.93859 19.2411,15.89316 7.3101,1.57331 8.4461,1.57531 15.8303,0.0278 z M -821.75,140.83102 c -1.2375,-0.49742 -2.25,-1.33857 -2.25,-1.86923 0,-0.53066 -0.9415,-1.26365 -2.0922,-1.62886 -4.7934,-1.52138 -7.3864,-14.39669 -4.8276,-23.97075 1.1021,-4.12324 5.5993,-9.02568 9.7349,-10.61199 3.9287,-1.50694 13.1195,-1.03975 16.2806,0.8276 l 2.9043,1.71561 0,16.56878 0,16.56878 -2.9043,1.71561 c -3.1642,1.86914 -12.9129,2.26523 -16.8457,0.68445 z m 75.4487,11.528 c 2.7839,-0.82673 5.6207,-2.17673 6.3039,-3 1.94,-2.33753 3.7053,-1.77367 4.8653,1.55409 1.0393,2.9814 1.1954,3.04407 6.8478,2.75 l 5.7843,-0.30093 0,-30.5 0,-30.500001 -6,-0.075 c -3.3,-0.0413 -6.3306,0.40873 -6.7347,1 -0.4041,0.59127 -0.7416,10.618571 -0.75,22.282891 l -0.015,21.2078 -4.3378,2.54216 c -3.2178,1.88571 -5.7354,2.53769 -9.75,2.52487 -10.2076,-0.0326 -11.8986,-4.45168 -11.9066,-31.11507 l -0.01,-18.632361 -5.9768,0 -5.9767,0 -0.6477,3.45252 c -0.3562,1.89888 -0.4477,12.533441 -0.2033,23.632351 0.485,22.02651 0.8291,23.50976 6.7684,29.17984 5.2524,5.01425 13.3157,6.49704 21.7348,3.99684 z m 67.818,-2.04959 c 6.5046,-3.29101 8.7661,-7.25462 8.6943,-15.23815 -0.069,-7.66438 -3.2499,-11.28116 -15.5807,-17.71475 -9.6154,-5.01682 -14.9388,-9.52679 -14.0326,-11.88829 0.2594,-0.67616 1.9942,-1.77992 3.855,-2.45278 3.8719,-1.4001 10.2893,-0.23618 16.8943,3.0641 5.563,2.77965 6.6126,1.97021 6.3629,-4.90693 l -0.2099,-5.783061 -4.7956,-2.27565 c -3.8115,-1.80864 -6.6089,-2.28978 -13.6314,-2.34455 -14.375,-0.11211 -20.0111,3.98602 -21.0966,15.339741 -0.4941,5.1681 -0.2555,6.35028 1.9329,9.57458 3.2461,4.78255 5.5972,6.74947 11.0907,9.27816 12.8323,5.90683 16,8.0713 16,10.93287 0,2.11395 -1.4883,3.33664 -5.8482,4.80459 -4.0924,1.37785 -10.2498,0.18867 -18.0356,-3.48322 -4.3448,-2.0491 -5.5516,-2.27999 -6.2538,-1.19649 -0.8566,1.32172 -0.9314,9.20144 -0.1096,11.53993 0.4135,1.17668 10.3425,4.81556 15.2472,5.58795 6.2546,0.98498 14.2621,-0.17943 19.5167,-2.83805 z m 50.2314,1.34931 c 2.4176,-1.15476 2.8141,-2.01185 3.2638,-7.0555 0.5825,-6.53199 0.01,-6.90134 -6.4934,-4.18436 -2.2662,0.94689 -4.8736,1.30459 -6.656,0.91311 -5.0845,-1.11676 -5.758,-3.41104 -5.8626,-19.97209 -0.052,-8.24874 -0.073,-15.56022 -0.047,-16.24772 0.034,-0.90389 2.5394,-1.25 9.0474,-1.25 l 9,0 0,-5.864041 0,-5.86404 -8.723,-0.19226 c -4.7976,-0.10574 -8.9312,-0.40057 -9.1858,-0.65516 -0.2546,-0.2546 -0.359,-2.47091 -0.2319,-4.92514 0.127,-2.45423 -0.2656,-5.39007 -0.8725,-6.52409 -1.0725,-2.00395 -1.1905,-1.96938 -4.2014,1.23144 -9.9312,10.5575 -17.7854,19.952421 -17.7854,21.274261 0,1.13367 1.1416,1.51903 4.5,1.51903 3.6217,0 4.4986,0.34155 4.493,1.75 0,0.9625 0.1192,9.175 0.2736,18.25 0.255,14.98782 0.4973,16.94443 2.6443,21.34931 3.1336,6.42897 7.7877,8.60646 17.3372,8.11147 3.7114,-0.19238 7.9864,-0.94128 9.5,-1.66422 z m 24.3294,-16.29656 c 0.5741,-17.89613 0.7823,-19.71805 2.7995,-24.5 2.7038,-6.40934 8.7564,-9.71464 14.2876,-7.80238 1.8345,0.63421 3.8328,1.82231 4.4408,2.64022 1.6102,2.1663 3.9426,0.83848 6.9807,-3.97417 3.0852,-4.887321 2.6602,-6.261331 -2.8155,-9.102981 -4.5662,-2.36965 -10.4945,-2.82778 -14.0076,-1.0825 -3.7074,1.84179 -9.763,7.50102 -9.763,9.123901 0,0.72377 -0.4996,1.00718 -1.1102,0.6298 -0.644,-0.398 -0.8846,-2.076591 -0.5729,-3.997101 0.7237,-4.46009 -1.097,-5.83239 -6.8744,-5.1812 -2.4977,0.28153 -4.7254,0.69594 -4.9503,0.92091 -0.3072,0.30722 -0.7796,52.853811 -0.5346,59.469731 0.027,0.73884 2.0795,1.09312 5.7924,1 l 5.75,-0.14423 0.5775,-18 z m 49.723,-11.33672 c 0.2266,-22.1306 0,-29.701071 -0.9306,-30.820011 -0.8862,-1.06785 -2.7909,-1.39367 -6.8004,-1.16328 l -5.5695,0.32001 -0.2653,29.379091 c -0.1931,21.38028 0.055,29.76462 0.9099,30.79513 0.8192,0.98704 2.8688,1.32663 6.7653,1.12091 l 5.5901,-0.29513 0.3005,-29.33672 z m 40.5678,26.37851 c 4.6762,-2.26023 4.8879,-2.27818 5.3646,-0.4551 0.7401,2.83018 6.7694,4.14779 11.9595,2.61355 5.1656,-1.52705 9.6886,-5.26498 8.8897,-7.34682 -0.3201,-0.83435 -0.5821,-2.43195 -0.5821,-3.55022 0,-1.93118 -0.1237,-1.95217 -2.4648,-0.41821 -5.3671,3.51663 -5.5247,3.09456 -5.6536,-15.13499 -0.065,-9.2125 -0.088,-17.01807 -0.051,-17.3457 0.037,-0.32764 -0.5902,-2.77928 -1.3934,-5.4481 -2.7673,-9.194961 -8.1486,-12.441401 -20.851,-12.579051 -7.9941,-0.0866 -16.4679,2.09318 -20.8892,5.37354 -1.7828,1.32276 -3.3718,9.547211 -2.356,12.194381 0.509,1.32652 1.4504,1.12378 6.3783,-1.37373 8.5813,-4.34905 14.281,-5.55593 18.9604,-4.01477 4.7895,1.57745 6.2486,3.45943 6.2889,8.1119 0.032,3.65003 0,3.67961 -6.7182,5.88532 -19.8637,6.52369 -26.2455,11.77215 -26.4733,21.77203 -0.1257,5.51968 1.628,9.08276 5.8233,11.83166 5.8735,3.84844 15.6655,3.80078 23.7683,-0.11569 z m -10.7831,-7.57501 c -3.5626,-1.07799 -4.55,-2.51445 -4.5699,-6.64869 -0.012,-2.41211 0.7192,-3.70492 3.0208,-5.34377 1.6698,-1.18903 3.6818,-2.25665 4.471,-2.37249 0.7893,-0.11583 1.7855,-0.56332 2.214,-0.99441 1.5279,-1.53745 7.6463,-3.63964 8.3833,-2.88037 0.6564,0.67627 1.2267,8.52449 0.9809,13.49727 -0.1656,3.34894 -9.2673,6.32578 -14.5001,4.74246 z m 54.5337,-30.21678 c 0.065,-22.687501 0.134,-42.150001 0.1523,-43.250001 0.1271,-7.64057 0.2446,-7.5 -6.2712,-7.5 -5.8717,0 -6.0006,0.0588 -6.0294,2.75 -0.034,3.19747 -0.028,88.627311 0.01,89.000001 0.013,0.1375 2.7234,0.25 6.0234,0.25 l 6,0 0.1189,-41.25 z m 85.6142,39.16137 c 1.9299,-0.73372 2.9619,-0.59235 4.2615,0.58372 1.1525,1.04303 3.4021,1.49221 6.8601,1.36982 l 5.1453,-0.18211 0.01,-4.5914 c 0.022,-13.94266 0.035,-82.936861 0.015,-84.841401 -0.021,-2.05487 -0.4945,-2.25 -5.4636,-2.25 -2.9926,0 -5.6826,0.39089 -5.9779,0.86864 -0.2952,0.47775 -0.5843,7.33144 -0.6424,15.23041 -0.058,7.89897 -0.3028,14.68101 -0.544,15.0712 -0.2411,0.3902 -2.1161,-0.0216 -4.1666,-0.91513 -2.3552,-1.02629 -6.4901,-1.62232 -11.2282,-1.61847 -6.187,0.005 -8.4628,0.48949 -13,2.76736 -3.025,1.5187 -6.175,3.51195 -7,4.42944 -7.8052,8.680331 -11.0904,19.201351 -9.1886,29.427351 2.6183,14.0792 10.6872,23.06897 23.1886,25.8349 4.0452,0.89498 14.0156,0.22909 17.7332,-1.18433 z m -18.5076,-12.04192 c -1.8009,-1.15327 -4.4451,-4.09438 -5.8759,-6.5358 -5.1486,-8.78548 -2.6765,-23.11644 4.9208,-28.52621 4.1967,-2.98826 13.2603,-3.64031 19.1793,-1.37979 l 4.3808,1.67302 0.1164,15.45619 c 0.073,9.65946 -0.3008,16.23595 -0.9962,17.53531 -0.612,1.14352 -1.3548,1.83701 -1.6508,1.5411 -0.2959,-0.29592 -1.1916,0.11554 -1.9904,0.91435 -2.3542,2.3542 -14.0325,1.91625 -18.084,-0.67817 z M -313,151.65629 c 1.925,-0.57012 5.6375,-1.93744 8.25,-3.03849 l 4.75,-2.00191 0,-6.87685 c 0,-3.78227 -0.2335,-6.87686 -0.5189,-6.87686 -0.2854,0 -3.0979,1.38103 -6.25,3.06896 -7.092,3.79771 -15.7584,6.1581 -19.7311,5.374 -8.881,-1.75285 -15.0836,-7.71603 -15.0226,-14.44296 0.026,-2.87189 -2.4668,-2.58998 25.0918,-2.83763 l 18.0692,-0.16237 -0.2768,-4.75 c -0.7394,-12.69083 -6.4309,-21.918341 -16.2345,-26.320621 -5.1665,-2.32005 -16.6189,-2.76115 -22.8918,-0.88172 -5.2297,1.56685 -12.3434,8.05421 -15.7196,14.335481 -2.2803,4.24225 -2.6229,6.06172 -2.6105,13.86304 0.016,10.13032 1.0739,14.23954 5.3634,20.83611 6.884,10.58636 22.8502,15.11911 37.7314,10.71182 z m -28.5808,-36.92492 c -0.3023,-0.48902 0.4298,-2.85017 1.6269,-5.247 5.1186,-10.248981 21.2915,-10.238591 25.5763,0.0164 2.582,6.17962 2.0541,6.43181 -13.1168,6.26687 -7.4453,-0.081 -13.7842,-0.54729 -14.0864,-1.03631 z M -555.1991,79.845499 c 1.4315,-1.53648 1.7358,-2.89674 1.2781,-5.71258 -0.5101,-3.13847 -1.1705,-3.91274 -4.3783,-5.13363 -3.6681,-1.39609 -3.8633,-1.35555 -6.7391,1.39967 -3.3047,3.16614 -3.7247,5.92869 -1.4049,9.24071 2.086,2.97822 8.5511,3.09656 11.2442,0.20583 z M -867.6435,-4.1011306 c 11.8459,-3.02967 19.4691,-8.9077004 24.293,-18.7316804 l 2.8505,-5.80501 0.3352,-31.18656 c 0.1955,-18.18628 -0.055,-31.88335 -0.6002,-32.85809 -0.6982,-1.24748 -2.4763,-1.70753 -7.0091,-1.81344 -5.765,-0.1347 -6.0911,-0.0149 -6.4192,2.35809 -0.1902,1.375 -0.4762,15.325 -0.6355,31 -0.1594,15.675 -0.729,29.90492 -1.2658,31.62205 -1.1681,3.73648 -7.6058,9.93699 -12.3944,11.9378 -4.5318,1.89351 -17.1004,1.84911 -22.5673,-0.0797 -2.3692,-0.83592 -6.1852,-3.4242 -8.4798,-5.75174 -5.8474,-5.93117 -6.5971,-11.13234 -6.3963,-44.37796 0.088,-14.55103 -0.024,-26.6404 -0.2491,-26.86525 -0.2248,-0.22486 -3.3135,-0.0885 -6.8637,0.30299 l -6.4548,0.71181 0,32.52416 0,32.52415 3.2368,6.57167 c 2.6178,5.31495 4.3513,7.35346 9.0649,10.65988 12.5682,8.8161304 24.7323,11.04779037 39.5548,7.2568304 z m 51.1032,-0.0367 4.296,0 0.1375,-22.2500004 0.1374,-22.25 3.2177,-2.76732 c 4.1095,-3.5343 8.8262,-4.85849 13.0209,-3.65548 1.7769,0.50962 3.4558,0.83983 3.7308,0.7338 0.275,-0.10603 1.4656,1.24002 2.6457,2.99121 1.8452,2.73807 2.2374,5.18072 2.8006,17.4409 0.3601,7.84129 0.4853,17.50697 0.2782,21.47929 -0.2072,3.9723104 -0.1174,7.5723104 0.1994,8.0000004 0.8811,1.18925 12.0642,1.0242 12.1533,-0.17937 0.042,-0.57367 0.036,-11.5356204 -0.014,-24.3598904 -0.1026,-26.29507 -0.59,-28.43202 -7.7263,-33.87521 -3.1646,-2.41378 -4.7777,-2.85778 -11.4921,-3.16304 -7.2091,-0.32775 -8.2308,-0.1181 -13.2621,2.72141 -5.4286,3.06372 -5.4526,3.06728 -5.7671,0.85511 -0.1737,-1.22177 -0.6533,-2.10891 -1.0658,-1.97141 -0.4125,0.1375 -3.4598,0.25 -6.7719,0.25 l -6.0218,0 0.073,29.93382 c 0.075,30.5067304 0.2136,31.6207404 3.8022,30.4869504 0.7325,-0.23142 3.265,-0.42077 5.6279,-0.42077 z m 70.2821,-29.8291704 0.2417,-29.99402 -6.2417,-0.38962 c -3.433,-0.21429 -6.5793,-0.22751 -6.9918,-0.0294 -0.7646,0.36724 -1.0923,59.5660404 -0.334,60.3255304 0.2289,0.22917 3.2664,0.34126 6.75,0.2491 l 6.334,-0.16758 0.2418,-29.9940204 z m 119.5181,26.0107304 6.7401,-3.0561304 -0.015,-5.31271 c -0.022,-7.47673 -0.6301,-8.00984 -5.9847,-5.24285 -8.5315,4.40867 -9.528,4.70248 -17.5,5.16004 -7.1778,0.41198 -8.3503,0.21821 -11.408,-1.88537 -4.3601,-2.99949 -6.9025,-6.49516 -7.7054,-10.59454 -0.6294,-3.21329 -0.5928,-3.25037 3.2384,-3.28249 2.1313,-0.0179 11.75,-0.13037 21.375,-0.25 l 17.5,-0.21751 0.3023,-5.82967 c 0.3575,-6.89559 -1.9092,-13.74819 -6.0106,-18.17033 -1.5304,-1.65 -2.7845,-3.29725 -2.7871,-3.66055 0,-0.36331 -2.3429,-1.82581 -5.2009,-3.25 -4.2586,-2.12213 -6.6076,-2.58945 -13.0158,-2.58945 -11.1839,0 -15.2058,1.49315 -21.8743,8.1209 -5.2622,5.23008 -5.7766,6.16559 -7.3983,13.4551 -1.9154,8.60917 -1.3029,16.20994 1.9297,23.94664 0.914,2.18755 1.5253,4.04488 1.3584,4.1274 -0.6815,0.33698 7.0025,6.5528704 11.1966,9.0574304 8.3636,4.99441 23.5858,4.76737 35.2599,-0.52591 z m -35.2098,-37.3562804 c 3.4503,-12.0305 20.681,-13.73543 26.5287,-2.62494 2.9992,5.6986 2.7726,5.79966 -13.009,5.79966 l -14.4302,0 0.9105,-3.17472 z m 65.5833,40.8741904 c 0.4405,-0.44029 0.6664,-7.9937304 0.5019,-16.7854304 -0.2381,-12.72063 0.038,-17.04976 1.353,-21.19947 3.4731,-10.9615 10.0033,-14.30732 18.986,-9.72767 4.4929,2.2906 5.6415,1.72418 8.9194,-4.39855 1.5838,-2.95835 1.6786,-3.79626 0.5796,-5.12053 -3.261,-3.9293 -14.473,-5.85639 -19.289,-3.31535 -2.8267,1.49142 -8.6754,7.64483 -8.7147,9.16873 -0.017,0.64834 -0.4987,0.37411 -1.0711,-0.6094 -0.5723,-0.9835 -0.7479,-3.121 -0.3901,-4.75 0.3578,-1.62899 0.2773,-2.98735 -0.1789,-3.01857 -8.1386,-0.55706 -12.335,-0.28321 -12.363,0.80677 -0.044,1.71552 -0.041,56.9435604 0,58.5000004 0.04,1.41165 10.3049,1.80722 11.6635,0.44947 z m 99.8666,-29.7281804 0,-30.36203 -6.5,0.0949 -6.5,0.0949 -0.3095,26.85046 c -0.1702,14.76776 -0.042,28.2900104 0.2857,30.0494504 0.568,3.05256 0.834,3.21529 5.8095,3.55528 2.8679,0.19596 5.6643,0.29392 6.2143,0.21768 0.6417,-0.0889 1,-11.0183604 1,-30.5006504 z m 52.505,28.5256404 c 0.5557,-0.34344 1.6003,-0.0333 2.3214,0.68931 0.884,0.88583 3.3244,1.2034 7.4923,0.97494 l 6.1813,-0.33882 0,-44.4359304 0,-44.43593 -2.25,-0.78596 c -1.9677,-0.68736 -4.588,-0.76137 -10.25,-0.28954 -1.2603,0.10502 -1.5,2.49537 -1.5,14.95833 0,8.15834 -0.2568,15.09015 -0.5707,15.40403 -0.3139,0.31388 -1.7764,-0.0583 -3.25,-0.82718 -1.6678,-0.87012 -5.8355,-1.40018 -11.0393,-1.40402 -7.4827,-0.006 -8.9861,0.3275 -14.3255,3.17341 -10.2292,5.45211 -14.821,14.35235 -14.8047,28.69616 0.01,6.92504 0.4694,9.60941 2.3426,13.62427 4.5483,9.74827 12.4735,15.3764504 23.1476,16.4386004 5.8253,0.57965 14.4539,-0.17403 16.505,-1.44167 z m -14.0924,-9.4308904 c -8.6141,-1.67687 -13.9126,-9.26096 -13.9126,-19.91388 0,-3.41902 0.6341,-7.7339 1.409,-9.58862 3.9842,-9.53555 15.8499,-13.80926 25.591,-9.21722 l 2.5,1.17852 0.2735,17.19977 0.2734,17.19978 -2.7734,1.40415 c -3.7467,1.89691 -9.0196,2.58261 -13.3609,1.7375 z m 68.7059,9.1762804 c 1.1652,-0.64457 2.4027,-0.88779 2.75,-0.54047 0.3473,0.34732 0.6315,0.10648 0.6315,-0.53518 0,-1.80892 2.1432,-1.38079 4.5887,0.91666 3.1986,3.0049 10.2004,2.81638 15.7288,-0.4235 3.5516,-2.08136 4.249,-2.98656 4.109,-5.3333304 -0.3321,-5.56776 -0.2633,-5.47956 -2.9188,-3.7396 -5.0658,3.31926 -5.5077,2.02654 -5.5077,-16.1127 0,-18.59771 -0.8918,-23.67403 -5.0437,-28.71106 -3.7349,-4.53112 -9.3014,-6.0807 -20.1859,-5.61925 -7.0419,0.29854 -9.3594,0.85809 -14.3351,3.46108 l -5.9353,3.10497 -0.2977,6.14503 c -0.3512,7.24924 0.1035,7.44066 7.0649,2.9736 4.1853,-2.68571 6.1284,-3.2401 12.687,-3.61977 7.105,-0.41131 7.9224,-0.25767 9.8953,1.85999 1.3924,1.49456 2.1505,3.60477 2.1505,5.98578 0,3.60826 -0.1176,3.71909 -6.25,5.89063 -13.6516,4.83418 -15.4022,5.59415 -19.506,8.46793 -7.2583,5.08277 -9.8907,13.77298 -6.2389,20.59637 1.4046,2.6244704 6.6849,6.1796904 10.2661,6.9121204 3.9625,0.81043 13.6446,-0.18418 16.3473,-1.6793 z m -9.3761,-8.7446104 c -4.2081,-1.81824 -5.8923,-5.85696 -3.7841,-9.07437 1.476,-2.25269 12.0599,-7.91838 16.0417,-8.58733 1.8328,-0.30791 2.0241,0.29456 2.2883,7.20465 l 0.2883,7.54065 -3.7883,1.61478 c -6.1254,2.61096 -7.6106,2.78598 -11.0459,1.30162 z m 80.7021,9.0365904 c 0.7035,-0.43479 1.5663,-0.3297 1.9173,0.23354 0.351,0.56325 3.5632,1.1834 7.1382,1.37812 l 6.5,0.35404 0.2602,-45.2500004 c 0.2286,-39.76073 0.077,-45.26516 -1.25,-45.375 -5.6956,-0.47143 -8.2914,-0.39818 -10.2602,0.28954 -2.1924,0.76583 -2.25,1.15372 -2.25,15.14404 0,7.89695 -0.2568,14.6149 -0.5707,14.92878 -0.3139,0.31388 -1.7764,-0.0583 -3.25,-0.82718 -3.2948,-1.719 -16.5283,-1.87285 -21.2801,-0.24741 -8.1943,2.80303 -15.9217,11.0698 -17.9769,19.23162 -1.6481,6.54524 -0.761,21.20237 1.5498,25.60561 4.8588,9.25845 11.3936,14.2278104 20.8279,15.8383604 4.5535,0.77734 16.6452,-0.0684 18.6445,-1.30406 z M -331.5,-15.063131 c -4.9283,-1.21585 -8.8535,-3.68085 -11.4269,-7.17598 -1.9315,-2.62345 -2.5105,-4.83743 -2.8368,-10.84747 -0.6816,-12.55613 3.8323,-19.70847 13.8599,-21.96154 4.6109,-1.03599 12.149,0.0389 14.6129,2.08383 0.9615,0.79797 1.2909,5.39099 1.2909,17.99993 l 0,16.92858 -3.25,1.33504 c -4.7017,1.93137 -8.825,2.48258 -12.25,1.63761 z m -373.8372,9.1753004 c 0.8145,-2.37516 17.7065,-40.0074004 21.9377,-48.8728904 1.8697,-3.91758 3.3995,-7.58194 3.3995,-8.14301 0,-1.47334 -1.8081,-1.87265 -7.809,-1.72462 l -5.309,0.13096 -7.941,18.37099 c -4.3675,10.10404 -7.941,18.50994 -7.941,18.67977 0,0.16984 -0.3946,0.3088 -0.8769,0.3088 -0.4822,0 -1.8828,-2.3625 -3.1124,-5.25 -1.2296,-2.8875 -4.0297,-9.075 -6.2224,-13.75 -2.1927,-4.675 -4.6848,-10.3 -5.5379,-12.5 -0.8531,-2.2 -1.8834,-4.37742 -2.2895,-4.83872 -0.9209,-1.04611 -11.5024,-1.56265 -13.0038,-0.63477 -1.4448,0.89293 0.7004,5.85563 19.9783,46.21795 l 6.5646,13.7444604 3.7814,0.006 c 2.7093,0.004 3.9515,-0.4906 4.3814,-1.74446 z m 174.963,-0.41992 c 8.1752,-4.0829004 10.7696,-9.1357704 9.3827,-18.2741704 -0.9581,-6.31316 -4.4644,-9.66948 -16.7175,-16.00248 -11.0708,-5.72199 -14.4172,-9.45698 -10.8499,-12.10989 2.9968,-2.22855 11.2281,-1.7383 18.0589,1.07556 3.3,1.3594 6.1125,2.47372 6.25,2.47627 0.1375,0.003 0.25,-2.86496 0.25,-6.37223 l 0,-6.37685 -4.9354,-2.12315 c -7.4749,-3.21563 -20.8352,-3.03365 -26.6307,0.36273 -10.0991,5.91848 -10.7901,18.84666 -1.4593,27.30273 2.5197,2.2834 13.9258,8.2114 15.7997,8.2114 1.4316,0 7.2257,6.14778 7.2257,7.66679 0,0.7079 -1.1259,2.02484 -2.5021,2.92652 -3.7398,2.45043 -13.4977,1.53244 -20.8411,-1.96065 -3.2138,-1.52872 -5.9836,-2.63395 -6.155,-2.45607 -0.5491,0.56976 -0.7418,3.19208 -0.6203,8.43949 l 0.1185,5.1160804 5.25,2.06906 c 7.6668,3.02154 22.3536,3.03648 28.3758,0.0289 z M -746.1378,-78.734661 c 1.6708,-3.66697 1.4164,-5.21549 -1.3035,-7.93537 -1.9583,-1.95827 -3.0959,-2.32337 -5.75,-1.84529 -6.1016,1.09908 -8.6023,6.57945 -5.0365,11.03766 3.2118,4.01558 10.0097,3.3088 12.09,-1.257 z m 248.2147,1.67375 c 3.4836,-3.48357 3.7097,-6.26614 0.7345,-9.03796 -2.3492,-2.18863 -2.9599,-2.37266 -6.8114,-2.05258 -3.7128,0.30857 -5,1.83897 -5,5.94494 0,4.98806 2.3365,7.72257 6.8269,7.98973 0.7298,0.0434 2.6423,-1.23643 4.25,-2.84413 z m 388.6865,597.896301 c -20.6776,-3.50809 -37.607,-18.05066 -44.4671,-38.19783 -1.7133,-5.03167 -1.8104,-22.20746 -2.1007,-371.77539 -0.2266,-272.74165 -0.011,-367.90701 0.8421,-372 1.4207,-6.81505 6.8723,-18.4393 10.6379,-22.68303 7.3143,-8.24296 9.0736,-9.79511 15.4417,-13.62286 5.1039,-3.06784 13.7929,-6.13232 20.3827,-7.18867 1.65,-0.2645 166.804098,-0.49002 367.0092,-0.50116 396.3066,-0.0221 367.5702,-0.43547 380.8849,5.47952 15.5942,6.92768 27.953,22.83786 30.6954,39.5162 1.285,7.81476 1.1984,730.20909 -0.088,736.99402 -1.0554,5.56542 -5.5911,16.62177 -7.7235,18.82741 -0.7027,0.72678 -1.2776,1.66589 -1.2776,2.0869 0,1.62243 -10.5503,11.49093 -16.1632,15.11878 -3.2402,2.09421 -8.6915,4.85734 -12.114,6.14028 L 626.5,521.36217 261,521.50058 c -201.025002,0.0761 -367.6315,-0.22321 -370.2366,-0.66519 z M 623.8548,506.8897 c 4.7607,-0.90284 7.9891,-2.21752 15.6452,-6.37115 8.0707,-4.37853 16.1631,-17.76561 17.4769,-28.91172 1.1012,-9.34166 1.2267,-706.5014 0.13,-721.80042 -0.7269,-10.13987 -1.2326,-12.36787 -4.1271,-18.18386 -6.335,-12.7291 -17.4446,-20.75247 -31.4798,-22.73481 -9.2341,-1.30423 -714.767602,-1.3755 -726.1243,-0.0734 -10.7519,1.23281 -19.2553,5.25716 -25.8972,12.25623 -5.7134,6.02062 -7.9361,9.68826 -10.0065,16.51151 -1.2557,4.13864 -1.4518,53.99304 -1.4612,371.54361 -0.01,211.10452 0.3652,367.50053 0.8752,368.5 0.4873,0.95504 1.9418,4.15784 3.2323,7.11733 1.2904,2.9595 4.6042,7.69311 7.364,10.51913 4.75,4.86411 7.6745,6.71264 17.0177,10.75684 3.7681,1.63101 25.108698,1.73462 368.1135,1.78726 231.932,0.0356 365.975,-0.29716 369.2413,-0.9166 z M 231.1931,391.00192 c -2.9189,-0.3883 -5.7245,-1.36609 -6.2347,-2.17287 -1.176,-1.85936 -1.262,-559.93973 -0.087,-561.79373 1.847,-2.91326 38.372,-4.12439 54.6282,-1.81141 l 8,1.13827 0.2518,281.1261 c 0.2278,254.46177 0.1028,281.24971 -1.3186,282.42936 -1.7792,1.47659 -45.7965,2.34058 -55.2401,1.08428 z M 194.5,384.79188 c -3.85,-1.04184 -8.35,-2.16617 -10,-2.49851 -1.65,-0.33234 -3.675,-0.8528 -4.5,-1.15657 -0.825,-0.30377 -2.175,-0.6628 -3,-0.79785 -2.539,-0.41563 -21.0856,-7.08084 -28.9146,-10.39123 -7.1676,-3.03074 -31.0681,-14.99489 -32.0854,-16.06136 -0.8102,-0.84937 -4.3365,-2.95762 -6.5948,-3.94282 -1.1522,-0.50262 -2.7272,-1.52924 -3.5,-2.28138 -0.7729,-0.75213 -3.5353,-2.60446 -6.138802,-4.11628 -2.6034,-1.51182 -5.9784,-3.91378 -7.5,-5.33769 -1.5215,-1.42391 -3.8912,-3.32177 -5.266,-4.21747 -5.3397,-3.47893 -19.334,-15.42617 -24.7488,-21.12854 l -4.273,-4.5 0.01,-200.5 0.01,-200.500001 9.2542,-8.718419 c 5.0897,-4.79514 9.5684,-8.73264 9.9526,-8.75 0.3841,-0.0174 1.9591,-1.21187 3.5,-2.65444 4.5349,-4.25219 18.0862,-14.37714 19.2356,-14.37714 0.582402,0 1.059502,-0.3375 1.060002,-0.75 6e-4,-0.4125 2.1381,-1.99907 4.75,-3.52571 2.612,-1.52663 5.632,-3.32663 6.7111,-4 7.1181,-4.44143 9.7289,-5.7243 10.5796,-5.19852 0.6182,0.3821 0.9624,77.862229 0.9537,214.721389 -0.01,126.775741 0.3558,214.353911 0.8919,214.688211 0.498,0.31054 4.7771,0.41907 9.5091,0.24116 L 143,288.71523 143,68.911149 c 0,-203.240849 0.1246,-219.907499 1.6537,-221.176529 0.9095,-0.75484 1.922,-1.29221 2.25,-1.19416 0.328,0.0981 1.9463,-0.41327 3.5963,-1.13628 7.2701,-3.1857 16.4592,-6.57756 22,-8.12059 3.3,-0.919 6.9,-2.05621 8,-2.52713 2.483,-1.06298 20.2553,-4.89428 22.7032,-4.89428 1.7248,0 1.7968,11.16405 1.7968,278.5 0,264.60496 -0.087,278.49561 -1.75,278.41197 -0.9625,-0.0484 -4.9,-0.94043 -8.75,-1.98227 z m 112.7457,-111.6797 0.2543,-113.75 30.4351,-0.26494 c 16.9612,-0.14765 30.8309,0.13097 31.3293,0.62935 0.5089,0.50885 0.8448,27.42397 0.7795,62.44974 -0.063,33.8555 0.175,62.7098 0.5291,64.12066 0.634,2.52595 0.7876,2.56519 10.0418,2.56519 l 9.398,0 -0.2564,-74.25 -0.2564,-74.25 -40.4481,-0.26152 c -30.8322,-0.19934 -40.6351,-0.55594 -41.2347,-1.5 -0.8751,-1.37786 -1.139,-305.7362 -0.2671,-308.00844 0.6748,-1.7585 2.9278,-1.4766 19.1999,2.40224 7.43,1.77111 33.2031,10.42362 39.7965,13.36045 18.1757,8.09572 34.6895,16.88612 38.0664,20.26302 0.9593,0.95934 2.0014,1.67837 2.3157,1.59785 1.0849,-0.27795 5.5819,2.44797 7.4574,4.52044 1.0347,1.14334 2.181,1.89357 2.5473,1.66717 0.3663,-0.22639 2.5058,1.02172 4.7545,2.77358 2.2486,1.75187 5.0954,3.86021 6.3261,4.68521 1.2308,0.825 4.0936,3.17547 6.3619,5.22327 2.2683,2.04779 4.47,3.73529 4.8927,3.75 0.4226,0.0147 4.8156,4.06618 9.7621,9.00328 l 8.9937,8.976549 -0.037,74.02345 -0.037,74.02345 -33.9751,0 -33.9751,0 0,-64.4999996 0,-64.5000004 -9.4194,0 -9.4193,0 -0.3307,71.75000037 c -0.1818,39.46249963 -0.1837,72.87499963 0,74.24999963 l 0.3264,2.5 41.4489,-0.27163 c 27.8137,-0.18227 42.101,0.0774 43.4312,0.7893 1.959,1.04841 1.9821,2.41263 1.9587,115.788091 l -0.024,114.72717 -8.2339,8.07361 c -4.5287,4.44048 -10.034,9.38307 -12.234,10.98353 -2.2,1.60046 -5.575,4.33584 -7.5,6.07863 -10.7714,9.75178 -41.2374,27.85502 -61,36.24688 -6.8166,2.89455 -25.9683,10.06048 -28,10.47668 -0.825,0.169 -2.175,0.58389 -3,0.92198 -3.6264,1.48612 -25.4898,6.68576 -28.1122,6.68576 l -2.8963,0 0.2542,-113.75 z"
           style="fill:#6ab646" />
      </g>
    </g>
  </g>
</svg>
